<svg xmlns="http://www.w3.org/2000/svg" xmlns:xlink="http://www.w3.org/1999/xlink" width="500" zoomAndPan="magnify" viewBox="0 0 375 374.999991" height="500" preserveAspectRatio="xMidYMid meet" version="1.0"><defs><clipPath id="a69894395c"><path d="M 54 54 L 321 54 L 321 321 L 54 321 Z M 54 54 " clip-rule="nonzero"/></clipPath><clipPath id="37ff456c37"><path d="M 213.820312 54.933594 L 320.0625 161.175781 L 161.113281 320.125 L 54.871094 213.882812 Z M 213.820312 54.933594 " clip-rule="nonzero"/></clipPath><clipPath id="55e8bb9810"><path d="M 320.0625 161.175781 L 213.820312 54.933594 L 144.316406 144.320312 L 54.929688 213.824219 L 161.171875 320.066406 L 230.671875 230.675781 Z M 320.0625 161.175781 " clip-rule="nonzero"/></clipPath><clipPath id="a835727f16"><path d="M 0 169.066406 L 205.933594 169.066406 L 205.933594 375 L 0 375 Z M 0 169.066406 " clip-rule="nonzero"/></clipPath><clipPath id="4d185e877f"><path d="M 102.964844 169.066406 C 46.101562 169.066406 0 215.167969 0 272.035156 C 0 328.898438 46.101562 375 102.964844 375 C 159.832031 375 205.933594 328.898438 205.933594 272.035156 C 205.933594 215.167969 159.832031 169.066406 102.964844 169.066406 Z M 102.964844 169.066406 " clip-rule="nonzero"/></clipPath><clipPath id="6a9015b890"><path d="M 168.507812 0 L 375 0 L 375 206.492188 L 168.507812 206.492188 Z M 168.507812 0 " clip-rule="nonzero"/></clipPath><clipPath id="e4abf2aec8"><path d="M 271.753906 0 C 214.734375 0 168.507812 46.226562 168.507812 103.246094 C 168.507812 160.265625 214.734375 206.492188 271.753906 206.492188 C 328.773438 206.492188 375 160.265625 375 103.246094 C 375 46.226562 328.773438 0 271.753906 0 Z M 271.753906 0 " clip-rule="nonzero"/></clipPath></defs><g clip-path="url(#a69894395c)"><g clip-path="url(#37ff456c37)"><g clip-path="url(#55e8bb9810)"><path fill="#000000" d="M 213.820312 54.933594 L 320.0625 161.175781 L 161.113281 320.125 L 54.871094 213.882812 Z M 213.820312 54.933594 " fill-opacity="1" fill-rule="nonzero"/></g></g></g><g clip-path="url(#a835727f16)"><g clip-path="url(#4d185e877f)"><path fill="#1b4332" d="M 0 169.066406 L 205.933594 169.066406 L 205.933594 375 L 0 375 Z M 0 169.066406 " fill-opacity="1" fill-rule="nonzero"/></g></g><g clip-path="url(#6a9015b890)"><g clip-path="url(#e4abf2aec8)"><path fill="#87986a" d="M 168.507812 0 L 375 0 L 375 206.492188 L 168.507812 206.492188 Z M 168.507812 0 " fill-opacity="1" fill-rule="nonzero"/></g></g></svg>